<?xml version="1.0" standalone="no"?>
<!DOCTYPE svg PUBLIC "-//W3C//DTD SVG 20010904//EN"
 "http://www.w3.org/TR/2001/REC-SVG-20010904/DTD/svg10.dtd">
<svg version="1.0" xmlns="http://www.w3.org/2000/svg"
 width="200.000000pt" height="200.000000pt" viewBox="0 0 200.000000 200.000000"
 preserveAspectRatio="xMidYMid meet">
<metadata>
Created by potrace 1.11, written by Peter Selinger 2001-2013
</metadata>
<g transform="translate(0.000000,200.000000) scale(0.100000,-0.100000)"
fill="#000000" stroke="none">
<path d="M630 1869 c-164 -32 -302 -180 -330 -355 -16 -98 -13 -492 5 -550 10
-32 15 -93 15 -177 0 -168 22 -220 101 -236 34 -7 31 1 79 -179 12 -47 58
-106 99 -126 14 -7 63 -19 109 -26 46 -7 92 -20 105 -30 102 -80 227 -86 332
-16 32 21 73 37 115 45 36 6 78 14 94 17 15 4 46 22 67 41 38 34 51 66 105
255 3 10 14 18 25 18 39 0 80 31 100 73 15 35 19 66 19 178 0 98 4 147 15 172
20 48 21 461 1 552 -37 174 -177 313 -346 345 -64 12 -647 11 -710 -1z m658
-110 c-3 -65 -6 -74 -36 -100 -50 -44 -111 -40 -286 18 -139 47 -143 47 -271
48 -121 0 -134 -2 -185 -27 -31 -15 -77 -49 -103 -75 -54 -54 -59 -49 -18 23
39 67 119 138 184 163 48 18 77 20 386 20 l333 1 -4 -71z m117 50 c68 -25 85
-48 85 -114 0 -76 -26 -141 -79 -196 -57 -59 -106 -74 -211 -66 -87 7 -136 21
-320 90 -125 46 -143 50 -246 55 -105 4 -115 3 -165 -21 -30 -15 -65 -34 -78
-44 -23 -17 -24 -17 -13 2 27 51 87 106 145 134 117 57 234 52 447 -19 63 -21
136 -41 161 -45 123 -18 209 64 209 203 0 23 2 42 5 42 2 0 29 -9 60 -21z
m200 -181 c24 -45 27 -57 21 -110 -30 -289 -330 -337 -843 -134 -171 68 -260
90 -331 83 -52 -6 -53 -5 -30 12 61 48 90 56 193 56 90 -1 110 -4 205 -39 223
-81 285 -98 366 -103 152 -10 222 17 290 112 38 55 53 98 55 168 l2 47 22 -20
c12 -12 35 -44 50 -72z m-943 -246 c45 -17 124 -46 174 -66 256 -100 511 -128
647 -71 l37 15 0 -298 0 -299 -45 -154 c-25 -85 -53 -165 -63 -179 -26 -35
-69 -57 -124 -64 -43 -5 -48 -4 -48 14 0 31 -18 24 -66 -26 -57 -58 -113 -84
-184 -84 -71 0 -127 26 -185 85 -28 29 -51 45 -60 41 -8 -3 -12 -12 -9 -21 5
-13 -1 -14 -42 -9 -58 8 -99 29 -126 65 -11 15 -37 89 -59 165 l-38 139 -1
394 0 394 54 -6 c30 -3 92 -19 138 -35z m-232 -227 c0 -223 -2 -255 -15 -255
-25 0 -62 44 -74 86 -14 50 -14 288 0 338 12 42 49 86 74 86 13 0 15 -32 15
-255z m1205 -195 c-8 -16 -29 -37 -45 -45 l-30 -16 0 194 c0 191 0 194 24 216
13 12 32 38 42 57 l19 35 3 -206 c2 -169 0 -210 -13 -235z m-12 -192 c-1 -61
-7 -121 -13 -133 -10 -19 -50 -51 -54 -43 0 2 0 62 2 134 3 124 5 132 25 142
40 20 42 16 40 -100z m-1228 90 c24 -11 25 -15 25 -97 1 -47 5 -105 9 -128 9
-47 9 -48 -21 -32 -33 18 -48 70 -48 174 0 52 2 95 5 95 2 0 16 -5 30 -12z"/>
<path d="M896 1145 c-4 -11 -33 -15 -143 -17 -130 -3 -138 -4 -138 -23 0 -19
8 -20 120 -23 155 -4 181 1 200 38 8 16 15 31 15 35 0 12 -48 4 -54 -10z"/>
<path d="M1040 1145 c0 -9 11 -27 25 -41 24 -24 27 -25 167 -22 119 3 143 5
143 18 0 12 -23 15 -138 18 -124 2 -138 4 -149 22 -15 24 -48 27 -48 5z"/>
<path d="M632 1034 c-17 -12 -22 -24 -20 -47 4 -41 32 -44 36 -4 3 21 9 27 28
27 17 0 24 -5 24 -20 0 -21 34 -45 51 -34 6 3 14 17 19 30 11 29 50 33 50 6 0
-24 19 -42 36 -35 23 8 17 60 -8 77 -32 23 -185 22 -216 0z"/>
<path d="M1138 1039 c-17 -10 -26 -68 -12 -82 12 -12 34 6 34 29 0 19 5 24 25
24 18 0 25 -5 25 -20 0 -23 32 -43 54 -34 9 3 19 17 22 30 8 33 44 33 44 0 0
-28 24 -41 40 -21 18 22 3 64 -26 75 -33 13 -184 12 -206 -1z"/>
<path d="M722 697 c-115 -115 -137 -147 -111 -162 5 -4 56 38 112 93 l102 100
50 -32 c44 -27 59 -31 121 -31 65 0 76 3 119 34 l46 33 98 -96 c91 -89 131
-115 131 -83 0 6 -55 70 -123 141 -95 100 -127 128 -141 123 -13 -5 -16 -14
-11 -36 5 -25 2 -31 -31 -52 -52 -32 -120 -31 -179 1 -46 25 -53 34 -35 45 6
3 10 15 10 26 0 41 -39 15 -158 -104z"/>
<path d="M752 607 c-36 -37 -42 -67 -13 -67 10 0 26 -12 36 -26 9 -14 25 -34
36 -45 10 -10 15 -19 9 -19 -5 0 -10 -10 -10 -21 0 -18 4 -20 28 -15 77 17 94
19 102 6 6 -9 19 -10 62 0 44 10 66 10 106 0 58 -13 77 -8 62 19 -7 14 -4 23
15 41 14 13 27 31 30 41 3 10 16 19 27 21 33 5 32 23 -3 62 -37 42 -46 44 -59
12 -8 -21 -17 -25 -76 -32 -71 -7 -247 0 -277 12 -9 3 -17 15 -17 25 0 28 -22
23 -58 -14z m428 -68 c0 -3 -15 -19 -32 -36 -29 -28 -40 -32 -98 -33 -158 -5
-179 -2 -211 29 -16 16 -29 33 -29 38 0 4 83 8 185 8 102 0 185 -2 185 -6z"/>
</g>
</svg>
